<svg width="96" height="87" viewBox="0 0 96 87" fill="none" xmlns="http://www.w3.org/2000/svg">
<path d="M17.4095 56.0815L1.98097 32.0815C1.12532 30.7505 2.081 29 3.66333 29H16.8111C17.5438 29 18.2179 28.5993 18.568 27.9555L32.932 1.54446C33.2821 0.900729 33.9562 0.5 34.6889 0.5H58.0836C59.6125 0.5 60.576 2.14588 59.8275 3.47907L46.0732 27.9791C45.7192 28.6096 45.0523 29 44.3292 29H32.0541C30.4948 29 29.5352 30.7051 30.3445 32.038L43.6555 53.962C44.4648 55.2949 43.5052 57 41.946 57H19.0919C18.4114 57 17.7775 56.654 17.4095 56.0815Z" fill="black" stroke="black"/>
<path d="M78.0905 30.4185L93.519 54.4185C94.3747 55.7495 93.419 57.5 91.8367 57.5H78.6889C77.9562 57.5 77.2821 57.9007 76.932 58.5445L62.568 84.9555C62.2179 85.5993 61.5438 86 60.8111 86L37.4164 86C35.8875 86 34.924 84.3541 35.6725 83.0209L49.4268 58.5209C49.7808 57.8904 50.4477 57.5 51.1708 57.5L63.4459 57.5C65.0052 57.5 65.9648 55.7949 65.1555 54.462L51.8445 32.538C51.0352 31.2051 51.9948 29.5 53.554 29.5L76.4081 29.5C77.0886 29.5 77.7225 29.846 78.0905 30.4185Z" fill="black" stroke="black"/>
</svg>
